<svg xmlns="http://www.w3.org/2000/svg" xmlns:xlink="http://www.w3.org/1999/xlink" version="1.1" width="256" height="256" viewBox="0 0 256 256" xml:space="preserve">
<g style="stroke: none; stroke-width: 0; stroke-dasharray: none; stroke-linecap: butt; stroke-linejoin: miter; stroke-miterlimit: 10; fill: none; fill-rule: nonzero; opacity: 1;" transform="translate(1.4065934065934016 1.4065934065934016) scale(2.81 2.81)">
	<rect x="7.41" y="36.79" rx="0" ry="0" width="26.06" height="2.96" style="stroke: none; stroke-width: 1; stroke-dasharray: none; stroke-linecap: butt; stroke-linejoin: miter; stroke-miterlimit: 10; fill: rgb(125,134,147); fill-rule: nonzero; opacity: 1;" transform=" matrix(1 0 0 1 0 0) "/>
	<rect x="0" y="44.94" rx="0" ry="0" width="27.54" height="2.96" style="stroke: none; stroke-width: 1; stroke-dasharray: none; stroke-linecap: butt; stroke-linejoin: miter; stroke-miterlimit: 10; fill: rgb(125,134,147); fill-rule: nonzero; opacity: 1;" transform=" matrix(1 0 0 1 0 0) "/>
	<rect x="7.41" y="53.09" rx="0" ry="0" width="11.98" height="2.96" style="stroke: none; stroke-width: 1; stroke-dasharray: none; stroke-linecap: butt; stroke-linejoin: miter; stroke-miterlimit: 10; fill: rgb(125,134,147); fill-rule: nonzero; opacity: 1;" transform=" matrix(1 0 0 1 0 0) "/>
	<path d="M 37.109 76.853 c -7.606 0 -13.794 -6.188 -13.794 -13.794 s 6.188 -13.794 13.794 -13.794 c 7.606 0 13.794 6.188 13.794 13.794 S 44.715 76.853 37.109 76.853 z M 37.109 52.228 c -5.972 0 -10.831 4.859 -10.831 10.831 s 4.858 10.831 10.831 10.831 c 5.972 0 10.83 -4.859 10.83 -10.831 S 43.081 52.228 37.109 52.228 z" style="stroke: none; stroke-width: 1; stroke-dasharray: none; stroke-linecap: butt; stroke-linejoin: miter; stroke-miterlimit: 10; fill: rgb(55,60,65); fill-rule: nonzero; opacity: 1;" transform=" matrix(1 0 0 1 0 0) " stroke-linecap="round"/>
	<path d="M 76.206 76.853 c -7.606 0 -13.794 -6.188 -13.794 -13.794 s 6.188 -13.794 13.794 -13.794 C 83.812 49.265 90 55.453 90 63.059 S 83.812 76.853 76.206 76.853 z M 76.206 52.228 c -5.972 0 -10.831 4.859 -10.831 10.831 s 4.859 10.831 10.831 10.831 c 5.972 0 10.831 -4.859 10.831 -10.831 S 82.177 52.228 76.206 52.228 z" style="stroke: none; stroke-width: 1; stroke-dasharray: none; stroke-linecap: butt; stroke-linejoin: miter; stroke-miterlimit: 10; fill: rgb(55,60,65); fill-rule: nonzero; opacity: 1;" transform=" matrix(1 0 0 1 0 0) " stroke-linecap="round"/>
	<path d="M 76.205 64.541 c -0.661 0 -1.264 -0.445 -1.435 -1.116 l -6.309 -24.717 c -0.203 -0.793 0.276 -1.6 1.069 -1.802 c 0.793 -0.2 1.6 0.277 1.802 1.069 l 6.309 24.718 c 0.203 0.792 -0.276 1.6 -1.069 1.802 C 76.45 64.526 76.326 64.541 76.205 64.541 z" style="stroke: none; stroke-width: 1; stroke-dasharray: none; stroke-linecap: butt; stroke-linejoin: miter; stroke-miterlimit: 10; fill: rgb(85,135,155); fill-rule: nonzero; opacity: 1;" transform=" matrix(1 0 0 1 0 0) " stroke-linecap="round"/>
	<path d="M 53.071 49.858 l -10.238 -7.245 c -2.292 -1.622 -2.755 -4.834 -1.014 -7.037 l 8.679 -10.982 c 1.946 -2.462 5.673 -2.486 7.65 -0.047 l 5.272 6.504 c 0.758 0.936 1.795 1.605 2.96 1.911 l 6.431 1.689 c 1.104 0.29 1.808 1.428 1.486 2.604 c -0.262 0.957 -1.229 1.548 -2.22 1.516 l -7.203 -0.237 c -1.535 -0.05 -2.983 -0.722 -4.013 -1.861 l -3.409 -3.769 c -0.03 -0.033 -0.081 -0.033 -0.11 0 l -4.968 5.492 c -0.029 0.032 -0.025 0.081 0.009 0.108 l 8.076 6.497 c 1.236 0.995 1.809 2.6 1.481 4.153 l -3.481 16.478 c -0.203 1.469 -1.459 2.563 -2.942 2.563 h 0 c -1.64 0 -2.97 -1.33 -2.97 -2.97 l 1.493 -13.209 C 54.133 51.174 53.763 50.347 53.071 49.858 z" style="stroke: none; stroke-width: 1; stroke-dasharray: none; stroke-linecap: butt; stroke-linejoin: miter; stroke-miterlimit: 10; fill: rgb(255,182,158); fill-rule: nonzero; opacity: 1;" transform=" matrix(1 0 0 1 0 0) " stroke-linecap="round"/>
	<circle cx="64.625" cy="19.095" r="5.945" style="stroke: none; stroke-width: 1; stroke-dasharray: none; stroke-linecap: butt; stroke-linejoin: miter; stroke-miterlimit: 10; fill: rgb(255,182,158); fill-rule: nonzero; opacity: 1;" transform="  matrix(1 0 0 1 0 0) "/>
	<path d="M 71.207 41.988 H 61.44 l 0.875 0.704 c 0.786 0.632 1.412 1.404 1.862 2.26 h 3.705 l -2.903 3.228 c 0.006 0.526 -0.028 1.056 -0.14 1.586 l -0.829 3.924 l 8.3 -9.229 c 0.391 -0.435 0.49 -1.06 0.252 -1.594 C 72.322 42.333 71.792 41.988 71.207 41.988 z" style="stroke: none; stroke-width: 1; stroke-dasharray: none; stroke-linecap: butt; stroke-linejoin: miter; stroke-miterlimit: 10; fill: rgb(85,135,155); fill-rule: nonzero; opacity: 1;" transform=" matrix(1 0 0 1 0 0) " stroke-linecap="round"/>
	<path d="M 52.381 38.504 c -0.033 -0.027 -0.037 -0.076 -0.009 -0.108 l 4.968 -5.492 c 0.03 -0.033 0.081 -0.033 0.11 0 l 1.875 2.072 l 3.892 -4.175 l -5.07 -6.255 c -1.976 -2.438 -5.704 -2.415 -7.65 0.047 l -8.679 10.982 c -1.741 2.203 -1.278 5.415 1.014 7.037 l 8.081 5.718 l 6.122 -6.082 L 52.381 38.504 z" style="stroke: none; stroke-width: 1; stroke-dasharray: none; stroke-linecap: butt; stroke-linejoin: miter; stroke-miterlimit: 10; fill: rgb(78,134,234); fill-rule: nonzero; opacity: 1;" transform=" matrix(1 0 0 1 0 0) " stroke-linecap="round"/>
	<path d="M 50.903 63.059 c 0 -0.492 -0.035 -0.975 -0.089 -1.453 H 39.776 l 7.256 -12.235 l -2.403 -1.701 l -8.691 14.654 c -0.269 0.454 -0.274 1.017 -0.013 1.475 c 0.261 0.458 0.748 0.741 1.275 0.741 h 13.615 C 50.869 64.054 50.903 63.561 50.903 63.059 z" style="stroke: none; stroke-width: 1; stroke-dasharray: none; stroke-linecap: butt; stroke-linejoin: miter; stroke-miterlimit: 10; fill: rgb(85,135,155); fill-rule: nonzero; opacity: 1;" transform=" matrix(1 0 0 1 0 0) " stroke-linecap="round"/>
</g>
</svg>